<svg width="37" height="34" viewBox="0 0 37 34" fill="none" xmlns="http://www.w3.org/2000/svg">
<path d="M13 9.5C13 12.6066 15.4624 15.125 18.5 15.125C21.5376 15.125 24 12.6066 24 9.5M35 7.99991V25.9999C35 28.1001 35.0004 29.1504 34.6007 29.9526C34.2492 30.6582 33.6875 31.2317 32.9976 31.5912C32.2133 31.9999 31.1872 32 29.1337 32H7.86702C5.8135 32 4.78597 31.9999 4.00163 31.5912C3.3117 31.2317 2.75118 30.6582 2.39964 29.9526C2 29.1504 2 28.1001 2 25.9999V7.99991C2 5.89971 2 4.84975 2.39964 4.04758C2.75118 3.34197 3.3117 2.76825 4.00163 2.40873C4.78597 2 5.8135 2 7.86702 2H29.1337C31.1872 2 32.2133 2 32.9976 2.40873C33.6875 2.76825 34.2492 3.34197 34.6007 4.04758C35.0004 4.84975 35 5.89971 35 7.99991Z" stroke="black" stroke-width="3" stroke-linecap="round" stroke-linejoin="round"/>
</svg>
